<svg xmlns="http://www.w3.org/2000/svg" width="149.105" height="12.868" viewBox="0 0 149.105 12.868">
  <g id="Grupo_1914" data-name="Grupo 1914" transform="translate(0.141 -3.8)">
    <path id="Trazado_218" data-name="Trazado 218" d="M139.826,11.5a4.244,4.244,0,0,0,.988-3.6,3.163,3.163,0,0,0-3.02-3.13,19.584,19.584,0,0,0-4.392,0,3.177,3.177,0,0,0-2.992,2.635,6.639,6.639,0,0,0-.11,1.29v7.275a4.931,4.931,0,0,0,.055.6.648.648,0,0,0,.631.549c.439.027.878,0,1.373,0V12.543c1.592,0,3.1-.055,4.639.027,1.4.055,1.922.631,2.059,2.031.055.577.027,1.18.055,1.757,0,.384.165.686.577.714.467.027.933,0,1.428,0C141.061,15.1,141.528,13.037,139.826,11.5Zm-.961-2.581a1.817,1.817,0,0,1-1.922,1.867c-1.51.082-3.02.027-4.557.027,0-.933-.027-1.812,0-2.69a1.547,1.547,0,0,1,1.455-1.7,21.121,21.121,0,0,1,3.486,0A1.593,1.593,0,0,1,138.81,7.9,4.209,4.209,0,0,1,138.865,8.919Z" transform="translate(-94.632 -0.617)" fill="#fff"/>
    <path id="Trazado_219" data-name="Trazado 219" d="M79.663,15.252c-1.4,0-2.8.027-4.2-.027A1.847,1.847,0,0,1,73.6,14.181a5.474,5.474,0,0,1-.247-2.581h3.541a8.9,8.9,0,0,0,1.208-.055.542.542,0,0,0,.549-.494c.027-.384,0-.769,0-1.208H73.377v-3.6h6.259V5.259a.584.584,0,0,0-.6-.631,2.663,2.663,0,0,0-.467-.027H71.4v8.593a3.583,3.583,0,0,0,3.843,3.871h4.118c.357,0,.769-.027.878-.467a9.982,9.982,0,0,0,.082-1.318A6.245,6.245,0,0,0,79.663,15.252Z" transform="translate(-51.901 -0.58)" fill="#fff"/>
    <path id="Trazado_220" data-name="Trazado 220" d="M197.371,4.6c-.906,0-1.071.192-1.071,1.071V17.036h1.263a.621.621,0,0,0,.659-.6,1.812,1.812,0,0,0,.027-.384V4.984a2.086,2.086,0,0,0-.027-.384Z" transform="translate(-142.513 -0.58)" fill="#fff"/>
    <path id="Trazado_221" data-name="Trazado 221" d="M364.922,3.9a6.088,6.088,0,0,0-6.424,6.4c.027,3.157,1.894,6.424,6.424,6.424a6.1,6.1,0,0,0,6.4-6.451A6.074,6.074,0,0,0,364.922,3.9Zm-.247,11.173c-2.5-.082-4.283-1.977-4.365-4.832a4.608,4.608,0,1,1,9.2.22A4.511,4.511,0,0,1,364.675,15.073Z" transform="translate(-260.182 -0.073)" fill="#fff"/>
    <path id="Trazado_222" data-name="Trazado 222" d="M437.751,3.9a6.088,6.088,0,0,0-6.451,6.369c.027,3.157,1.867,6.424,6.369,6.451a6.11,6.11,0,0,0,6.479-6.369A6.14,6.14,0,0,0,437.751,3.9Zm4.557,6.644a4.452,4.452,0,0,1-3.651,4.447c-3.047.549-5.491-1.455-5.573-4.777a4.464,4.464,0,0,1,2.224-4.063,4.624,4.624,0,0,1,7,4.392Z" transform="translate(-312.999 -0.073)" fill="#fff"/>
    <path id="Trazado_223" data-name="Trazado 223" d="M515.114,7.892a3.128,3.128,0,0,0-2.883-3.157,21.076,21.076,0,0,0-4.557-.027A3.17,3.17,0,0,0,504.71,7.37a6.267,6.267,0,0,0-.11,1.235v7.3a4.487,4.487,0,0,0,.055.6.671.671,0,0,0,.631.549c.439.027.879,0,1.345,0V12.449c.988,0,1.922.027,2.855,0,.906-.027,1.812-.027,2.69-.137A3.071,3.071,0,0,0,515,9.786,6.241,6.241,0,0,0,515.114,7.892Zm-1.949,1.1a1.724,1.724,0,0,1-1.675,1.7c-1.208.082-2.443.055-3.679.082h-1.1c0-1.043-.055-2,.027-2.965a1.424,1.424,0,0,1,1.428-1.455,24.63,24.63,0,0,1,3.486,0,1.517,1.517,0,0,1,1.455,1.428A6.034,6.034,0,0,1,513.165,8.99Z" transform="translate(-366.176 -0.578)" fill="#fff"/>
    <path id="Trazado_224" data-name="Trazado 224" d="M310.5,15.332c-1.263,0-2.526.027-3.761,0a1.9,1.9,0,0,1-2.141-1.894,7,7,0,0,1-.055-1.071V5.449c-.027-.357-.137-.686-.522-.714a11.911,11.911,0,0,0-1.4,0c0,3.02-.082,6.012.027,9a3.223,3.223,0,0,0,3.185,3.349,35.634,35.634,0,0,0,4.53.055.67.67,0,0,0,.686-.714c.027-.329,0-.659,0-1.043A2.163,2.163,0,0,0,310.5,15.332Z" transform="translate(-219.625 -0.661)" fill="#fff"/>
    <path id="Trazado_225" data-name="Trazado 225" d="M11.981,4.092a.293.293,0,0,0-.247-.192h-1.1a.3.3,0,0,0-.275.165L9.071,6.783,6.6,11.944h0l1.235,1.18,3.02-6.342.247-.522V6.233h0v.027h0L13,10.736l.247.577v.027h0l.659,1.592h0l.247.631,1.29,2.992a.314.314,0,0,0,.412.165l.933-.384a.314.314,0,0,0,.165-.412Z" transform="translate(-4.89 -0.073)" fill="#fff"/>
    <path id="Trazado_226" data-name="Trazado 226" d="M243.181,4.02a.293.293,0,0,0-.247-.192h-.6V3.8h-.494a.3.3,0,0,0-.275.165l-1.29,2.718L237.8,11.844h0l1.235,1.18,3.02-6.342.247-.522V6.133h0v.027h0l1.894,4.475.247.577v.027h0l.659,1.592h0l.275.631,1.263,3.02a.314.314,0,0,0,.412.165l.933-.384a.314.314,0,0,0,.165-.412Z" transform="translate(-172.62 0)" fill="#fff"/>
    <path id="Trazado_227" data-name="Trazado 227" d="M239.553,17.406a13.723,13.723,0,0,0-2.526.494,15.157,15.157,0,0,0-2.91,1.29l3.02-6.342.247-.522V12.3l-.247.522-3.02,6.342-1.235-1.18L231.1,21.716a.31.31,0,0,0,.11.412l.933.549a.29.29,0,0,0,.384-.055,10.555,10.555,0,0,1,4.557-3.02,11.485,11.485,0,0,1,3.13-.631v-.027Z" transform="translate(-167.73 -6.167)" fill="#fff"/>
    <path id="Trazado_228" data-name="Trazado 228" d="M254.2,12.327h0V12.3h0v.027Z" transform="translate(-184.518 -6.167)" fill="#fff"/>
    <path id="Trazado_229" data-name="Trazado 229" d="M254.2,12.327h0V12.3h0v.027Z" transform="translate(-184.518 -6.167)" fill="#fff"/>
    <path id="Trazado_230" data-name="Trazado 230" d="M262,30.9h0l.659,1.592v.027h0Z" transform="translate(-190.176 -19.66)" fill="#fff"/>
    <path id="Trazado_231" data-name="Trazado 231" d="M262,30.9h0l.659,1.592v.027h0Z" transform="translate(-190.176 -19.66)" fill="#fff"/>
    <path id="Trazado_232" data-name="Trazado 232" d="M8.353,17.506A13.723,13.723,0,0,0,5.828,18a15.157,15.157,0,0,0-2.91,1.29l3.02-6.342.247-.522V12.4l-.247.522-3.02,6.342-1.235-1.18L-.1,21.844a.31.31,0,0,0,.11.412l.933.549a.29.29,0,0,0,.384-.055,10.555,10.555,0,0,1,4.557-3.02,11.485,11.485,0,0,1,3.13-.631v-.027Z" transform="translate(0 -6.239)" fill="#fff"/>
    <path id="Trazado_233" data-name="Trazado 233" d="M30.8,31h0l.659,1.565.027.027h0Z" transform="translate(-22.447 -19.733)" fill="#fff"/>
    <path id="Trazado_234" data-name="Trazado 234" d="M30.8,31h0l.659,1.565.027.027h0Z" transform="translate(-22.447 -19.733)" fill="#fff"/>
    <path id="Trazado_235" data-name="Trazado 235" d="M23,12.327v0Z" transform="translate(-16.788 -6.167)" fill="#fff"/>
    <path id="Trazado_236" data-name="Trazado 236" d="M23,12.327v0Z" transform="translate(-16.788 -6.167)" fill="#fff"/>
  </g>
</svg>
